<mxfile host="65bd71144e">
    <diagram id="isvdmmz2b9CaDsU2osz-" name="Page-1">
        <mxGraphModel dx="1484" dy="703" grid="1" gridSize="10" guides="1" tooltips="1" connect="1" arrows="1" fold="1" page="1" pageScale="1" pageWidth="827" pageHeight="1169" math="0" shadow="0">
            <root>
                <mxCell id="0"/>
                <mxCell id="1" parent="0"/>
                <mxCell id="0vcQ2RfdXsWS-IzrkH8d-1" value="" style="shape=cylinder3;whiteSpace=wrap;html=1;boundedLbl=1;backgroundOutline=1;size=15;" parent="1" vertex="1">
                    <mxGeometry x="220" y="280" width="300" height="160" as="geometry"/>
                </mxCell>
                <mxCell id="0vcQ2RfdXsWS-IzrkH8d-2" value="UI" style="whiteSpace=wrap;html=1;aspect=fixed;" parent="1" vertex="1">
                    <mxGeometry x="20" y="320" width="80" height="80" as="geometry"/>
                </mxCell>
                <mxCell id="0vcQ2RfdXsWS-IzrkH8d-3" value="API" style="whiteSpace=wrap;html=1;aspect=fixed;" parent="1" vertex="1">
                    <mxGeometry x="120" y="320" width="80" height="80" as="geometry"/>
                </mxCell>
                <mxCell id="0vcQ2RfdXsWS-IzrkH8d-4" value="JSON-LD" style="whiteSpace=wrap;html=1;aspect=fixed;" parent="1" vertex="1">
                    <mxGeometry x="330" y="330" width="80" height="80" as="geometry"/>
                </mxCell>
                <mxCell id="0vcQ2RfdXsWS-IzrkH8d-8" value="Ingest&lt;br&gt;API" style="whiteSpace=wrap;html=1;aspect=fixed;" parent="1" vertex="1">
                    <mxGeometry x="540" y="320" width="80" height="80" as="geometry"/>
                </mxCell>
                <mxCell id="5C9bipjjYetBduN_6gn8-1" value="Synoniemen" style="whiteSpace=wrap;html=1;aspect=fixed;" parent="1" vertex="1">
                    <mxGeometry x="420" y="330" width="80" height="80" as="geometry"/>
                </mxCell>
                <mxCell id="5C9bipjjYetBduN_6gn8-2" value="Full-Text" style="whiteSpace=wrap;html=1;aspect=fixed;" parent="1" vertex="1">
                    <mxGeometry x="240" y="330" width="80" height="80" as="geometry"/>
                </mxCell>
                <mxCell id="5C9bipjjYetBduN_6gn8-5" value="Elastic index" style="text;html=1;strokeColor=none;fillColor=none;align=center;verticalAlign=middle;whiteSpace=wrap;rounded=0;" parent="1" vertex="1">
                    <mxGeometry x="310" y="280" width="120" height="30" as="geometry"/>
                </mxCell>
                <mxCell id="5C9bipjjYetBduN_6gn8-6" value="" style="endArrow=classic;html=1;rounded=0;exitX=0;exitY=0.5;exitDx=0;exitDy=0;entryX=1;entryY=0.5;entryDx=0;entryDy=0;" parent="1" source="0vcQ2RfdXsWS-IzrkH8d-3" target="0vcQ2RfdXsWS-IzrkH8d-2" edge="1">
                    <mxGeometry width="50" height="50" relative="1" as="geometry">
                        <mxPoint x="150" y="210" as="sourcePoint"/>
                        <mxPoint x="90" y="250" as="targetPoint"/>
                    </mxGeometry>
                </mxCell>
                <mxCell id="5C9bipjjYetBduN_6gn8-10" value="" style="endArrow=classic;html=1;rounded=0;exitX=0;exitY=0.5;exitDx=0;exitDy=0;entryX=1;entryY=0.5;entryDx=0;entryDy=0;exitPerimeter=0;" parent="1" source="0vcQ2RfdXsWS-IzrkH8d-1" target="0vcQ2RfdXsWS-IzrkH8d-3" edge="1">
                    <mxGeometry width="50" height="50" relative="1" as="geometry">
                        <mxPoint x="590" y="190" as="sourcePoint"/>
                        <mxPoint x="640" y="140" as="targetPoint"/>
                    </mxGeometry>
                </mxCell>
                <mxCell id="5C9bipjjYetBduN_6gn8-12" value="" style="endArrow=classic;html=1;rounded=0;entryX=1;entryY=0.5;entryDx=0;entryDy=0;entryPerimeter=0;exitX=0;exitY=0.5;exitDx=0;exitDy=0;" parent="1" target="0vcQ2RfdXsWS-IzrkH8d-1" edge="1" source="0vcQ2RfdXsWS-IzrkH8d-8">
                    <mxGeometry width="50" height="50" relative="1" as="geometry">
                        <mxPoint x="360" y="490" as="sourcePoint"/>
                        <mxPoint x="410" y="440" as="targetPoint"/>
                    </mxGeometry>
                </mxCell>
                <mxCell id="5C9bipjjYetBduN_6gn8-13" value="" style="endArrow=classic;html=1;rounded=0;entryX=1;entryY=0.5;entryDx=0;entryDy=0;exitX=0;exitY=0.5;exitDx=0;exitDy=0;" parent="1" source="5C9bipjjYetBduN_6gn8-14" target="0vcQ2RfdXsWS-IzrkH8d-8" edge="1">
                    <mxGeometry width="50" height="50" relative="1" as="geometry">
                        <mxPoint x="360" y="640" as="sourcePoint"/>
                        <mxPoint x="440" y="680" as="targetPoint"/>
                    </mxGeometry>
                </mxCell>
                <mxCell id="5C9bipjjYetBduN_6gn8-14" value="" style="whiteSpace=wrap;html=1;aspect=fixed;" parent="1" vertex="1">
                    <mxGeometry x="640" y="320" width="80" height="80" as="geometry"/>
                </mxCell>
                <mxCell id="5C9bipjjYetBduN_6gn8-15" value="JSON-LD" style="whiteSpace=wrap;html=1;aspect=fixed;" parent="1" vertex="1">
                    <mxGeometry x="650" y="330" width="80" height="80" as="geometry"/>
                </mxCell>
            </root>
        </mxGraphModel>
    </diagram>
</mxfile>